<?xml version="1.0" standalone="no"?>
<!DOCTYPE svg PUBLIC "-//W3C//DTD SVG 20010904//EN"
 "http://www.w3.org/TR/2001/REC-SVG-20010904/DTD/svg10.dtd">
<svg version="1.0" xmlns="http://www.w3.org/2000/svg"
 width="553.000000pt" height="553.000000pt" viewBox="0 0 553.000000 553.000000"
 preserveAspectRatio="xMidYMid meet">
<metadata>
Created by potrace 1.14, written by Peter Selinger 2001-2017
</metadata>
<g transform="translate(0.000000,553.000000) scale(0.100000,-0.100000)"
fill="#000000" stroke="none">
<path d="M1566 4677 c-9 -7 -18 -23 -20 -37 -3 -14 -5 -25 -6 -25 -1 0 -3 -11
-6 -25 -4 -24 -6 -37 -19 -110 -4 -19 -13 -62 -21 -95 -31 -122 -26 -129 97
-131 97 -1 89 -7 106 76 8 42 11 55 13 55 1 0 4 14 6 30 2 17 7 41 11 55 3 14
7 30 8 35 0 6 5 28 9 50 5 22 10 48 12 58 1 9 5 21 9 26 3 5 1 12 -5 16 -6 4
-8 10 -5 15 7 12 -25 18 -103 18 -39 0 -78 -5 -86 -11z"/>
<path d="M2252 4682 c-20 -6 -44 -79 -46 -139 -1 -13 -4 -23 -7 -23 -3 0 -6
-6 -6 -12 0 -21 -25 -122 -35 -140 -6 -12 -5 -18 2 -18 7 0 8 -6 0 -19 -16
-32 -13 -71 8 -72 174 -11 188 -7 198 48 8 42 12 58 14 61 2 1 3 10 4 20 1 9
6 33 11 52 5 19 10 43 11 53 1 9 2 18 4 20 1 1 3 9 5 17 26 107 27 138 5 150
-17 9 -142 11 -168 2z"/>
<path d="M4224 4680 c-19 -8 -36 -48 -48 -115 -3 -16 -8 -41 -11 -55 -3 -14
-8 -34 -10 -45 -3 -11 -14 -63 -25 -115 -12 -52 -23 -106 -25 -120 -7 -49 -16
-83 -26 -102 -7 -12 -6 -18 1 -18 7 0 8 -6 1 -19 -6 -10 -13 -33 -16 -52 -3
-19 -11 -54 -16 -79 -17 -72 -19 -82 -30 -135 -6 -27 -12 -59 -15 -70 -2 -11
-6 -31 -9 -45 -22 -112 -22 -108 -25 -115 -1 -3 -4 -14 -5 -25 -1 -11 -4 -21
-5 -22 -1 -2 -3 -15 -4 -29 -2 -14 -5 -30 -9 -35 -3 -5 -8 -30 -12 -54 -8 -51
-13 -75 -15 -75 -2 0 -6 -21 -14 -69 -3 -21 -8 -42 -11 -46 -6 -9 -15 -62 -17
-97 -1 -13 -6 -23 -12 -23 -5 0 -7 -2 -4 -6 3 -3 -2 -42 -12 -87 -10 -45 -16
-85 -13 -89 2 -5 0 -8 -4 -8 -5 0 -9 -10 -10 -22 -1 -25 -11 -75 -19 -97 -2
-8 -7 -30 -10 -50 -7 -41 -8 -47 -18 -81 -4 -14 -9 -38 -11 -55 -2 -16 -4 -30
-5 -30 -2 0 -3 -7 -23 -100 -9 -38 -13 -73 -11 -77 3 -4 1 -8 -5 -8 -5 0 -8
-8 -6 -17 1 -10 0 -22 -4 -28 -3 -5 -7 -18 -8 -27 -5 -33 -12 -63 -14 -65 -1
-2 -3 -7 -4 -13 -1 -5 -3 -11 -4 -12 -2 -3 -8 -42 -14 -93 -1 -11 -5 -24 -9
-30 -3 -5 -4 -18 -3 -27 2 -10 0 -18 -4 -18 -4 0 -8 -6 -9 -12 -2 -29 -10 -83
-12 -85 -3 -4 -5 -12 -15 -58 -4 -22 -10 -49 -12 -60 -2 -11 -6 -31 -9 -45 -3
-14 -10 -43 -16 -65 -6 -22 -12 -44 -14 -50 -1 -5 -3 -14 -5 -20 -7 -22 13
-55 34 -56 25 -2 91 -2 123 0 32 2 64 32 69 66 3 17 8 46 11 65 4 19 8 42 9
50 1 8 5 27 9 42 3 16 8 40 11 55 3 16 8 35 10 43 2 8 7 29 10 45 2 17 7 41
10 55 4 14 8 39 11 55 3 17 8 37 11 45 3 8 7 24 9 35 9 57 13 73 23 113 7 23
9 47 6 52 -3 6 -2 10 3 10 5 0 9 6 9 13 0 6 3 26 7 42 3 17 8 40 10 53 3 13 8
33 12 44 3 11 7 30 9 41 2 12 11 56 20 97 9 41 18 86 20 100 2 14 4 25 5 25 1
0 3 7 5 15 6 30 18 85 20 100 1 8 5 26 8 40 4 14 9 36 12 50 9 49 22 98 30
110 6 9 4 11 -4 5 -10 -6 -11 -3 -3 11 12 22 24 79 24 112 0 12 3 22 7 22 4 0
8 6 8 13 1 21 12 80 22 122 6 22 13 56 16 75 3 19 10 51 15 70 5 19 12 51 15
70 9 45 13 65 15 65 1 0 3 11 6 25 2 14 8 45 14 70 5 25 12 56 14 70 2 14 10
48 16 75 7 28 14 64 17 80 6 33 7 39 16 75 4 14 9 39 12 55 3 17 8 41 11 55 3
14 7 32 9 40 2 8 4 15 5 15 1 0 3 9 5 20 2 19 7 42 20 105 13 63 17 86 18 98
0 6 4 12 9 12 5 0 7 4 4 8 -3 4 -1 26 4 48 14 61 26 122 33 169 2 12 -160 16
-189 5z"/>
<path d="M193 4559 c-26 -10 -41 -36 -47 -81 -3 -19 -8 -46 -11 -61 -14 -54
-3 -57 222 -55 166 1 206 -1 214 -13 8 -14 7 -32 -7 -94 -4 -16 -8 -39 -10
-50 -1 -11 -3 -20 -4 -20 -2 0 -8 -26 -15 -65 -4 -19 -13 -62 -21 -95 -8 -33
-17 -71 -19 -85 -2 -14 -7 -36 -10 -50 -3 -14 -8 -36 -11 -50 -2 -14 -11 -56
-20 -95 -9 -38 -18 -79 -20 -90 -2 -11 -8 -43 -14 -71 -6 -28 -13 -61 -15 -75
-7 -36 -12 -60 -24 -109 -12 -51 -48 -222 -55 -260 -3 -14 -8 -36 -11 -50 -4
-14 -8 -37 -9 -51 -2 -14 -5 -30 -8 -35 -3 -5 -11 -38 -18 -74 -7 -36 -17 -71
-23 -77 -6 -9 -6 -13 1 -13 7 0 6 -14 -3 -40 -8 -22 -14 -42 -15 -45 0 -3 0
-6 -1 -7 0 -2 -2 -12 -4 -23 -2 -19 -5 -32 -20 -95 -3 -14 -7 -41 -10 -60 -2
-19 -4 -35 -5 -35 -2 0 -10 -35 -15 -60 -2 -11 -4 -21 -5 -22 -3 -3 -4 -6 -13
-53 -13 -62 -15 -74 -26 -119 -5 -25 -8 -49 -5 -53 3 -4 1 -8 -3 -8 -5 0 -10
-10 -11 -22 -3 -27 -10 -63 -12 -63 -1 0 -3 -11 -5 -25 -1 -14 -12 -65 -24
-113 -12 -49 -19 -93 -16 -98 4 -5 1 -9 -5 -9 -7 0 -10 -7 -7 -15 4 -8 2 -17
-3 -20 -5 -3 -7 -12 -4 -19 3 -8 1 -17 -5 -20 -6 -4 -8 -13 -4 -21 3 -8 1 -15
-3 -15 -5 0 -9 -10 -10 -22 0 -13 -3 -40 -6 -61 -8 -53 6 -64 95 -66 81 -2
116 14 120 57 1 12 5 22 10 22 4 0 6 4 2 9 -3 5 0 31 6 58 6 26 12 55 14 63 2
8 15 74 31 145 15 72 28 139 30 150 1 11 3 20 4 20 2 0 5 15 15 65 10 50 13
65 15 65 1 0 3 9 4 20 2 11 6 36 11 55 5 19 9 44 11 55 1 11 3 20 4 20 1 0 3
9 5 21 3 11 18 82 34 158 17 76 28 142 25 147 -3 5 0 9 7 9 7 0 10 3 7 6 -4 3
-2 20 3 37 5 18 12 47 15 66 3 18 8 43 10 55 3 11 7 35 10 51 3 17 8 37 11 45
5 14 8 26 17 85 1 11 5 27 9 35 3 8 8 29 11 45 5 29 9 49 21 105 4 14 8 34 9
45 3 17 16 81 22 108 1 4 3 9 4 12 3 7 5 13 15 70 4 28 10 55 11 60 2 6 5 21
8 35 3 14 8 36 11 50 4 14 8 36 11 50 3 14 7 32 9 40 2 8 7 30 10 47 3 18 12
63 21 100 19 81 21 89 28 139 4 22 11 55 16 74 5 19 11 46 14 60 4 23 23 108
26 120 1 3 10 16 20 29 17 24 19 24 201 26 101 1 196 5 210 9 36 10 69 72 69
130 0 41 -3 48 -26 56 -14 6 -31 7 -37 3 -11 -7 -955 -6 -992 1 -11 2 -30 0
-42 -5z"/>
<path d="M3038 3874 c-2 -1 -19 -5 -38 -8 -52 -8 -116 -32 -176 -67 -56 -32
-154 -120 -154 -138 0 -6 -5 -11 -11 -11 -5 0 -7 -4 -4 -10 3 -5 2 -10 -3 -10
-10 0 -51 -79 -48 -91 0 -4 -8 -16 -18 -28 -11 -12 -16 -21 -13 -21 3 0 -1
-16 -9 -35 -8 -19 -14 -37 -14 -40 0 -3 0 -6 -1 -7 0 -2 -2 -11 -5 -20 -2 -10
-5 -24 -7 -30 -2 -7 -13 -58 -26 -113 -12 -55 -25 -111 -28 -125 -4 -14 -8
-32 -9 -40 -8 -42 -14 -69 -23 -105 -5 -22 -10 -41 -11 -42 0 -2 -1 -4 -1 -5
-1 -2 -3 -16 -4 -33 -2 -16 -4 -30 -5 -30 -1 0 -3 -7 -5 -15 -10 -46 -16 -77
-20 -95 -4 -28 -34 -175 -40 -202 -12 -55 -15 -70 -22 -103 -9 -46 -10 -50
-12 -52 -2 -2 -4 -14 -7 -28 -2 -14 -9 -47 -14 -75 -18 -95 -22 -120 -24 -171
-1 -27 -6 -56 -10 -62 -4 -7 -4 -17 0 -24 4 -6 8 -39 10 -72 1 -34 3 -62 4
-63 1 -2 3 -7 4 -12 0 -5 4 -13 9 -17 4 -4 7 -15 7 -25 0 -23 37 -89 72 -128
137 -152 445 -169 653 -36 42 27 86 69 136 133 16 19 79 156 84 179 2 12 8 30
13 40 6 10 11 23 12 28 2 6 4 15 5 20 2 6 9 37 16 70 15 72 16 74 18 78 2 1 4
13 7 27 2 14 7 36 11 50 3 14 6 28 5 32 -1 4 3 19 8 34 6 14 12 41 15 58 2 17
7 42 10 56 4 14 8 34 10 45 2 11 7 31 10 45 6 24 11 50 19 95 2 11 4 20 5 20
3 0 13 73 14 98 1 9 4 17 8 17 4 0 6 8 4 18 -1 9 0 22 4 27 3 6 6 15 7 20 9
48 34 166 39 185 1 3 5 23 10 45 4 22 12 48 17 58 6 11 5 17 -2 17 -8 0 -8 6
0 20 6 11 8 25 5 30 -3 6 -2 10 3 10 5 0 9 17 8 38 -2 20 0 41 3 46 8 17 7
151 -1 163 -5 6 -5 14 2 18 6 4 7 13 1 23 -4 9 -11 32 -14 50 -11 58 -59 146
-101 186 -75 71 -206 116 -328 114 -32 0 -59 -2 -60 -4z m157 -214 c35 -16 95
-69 95 -83 0 -3 5 -18 12 -34 6 -15 12 -37 13 -48 0 -11 3 -24 7 -30 12 -20 0
-217 -18 -285 -7 -27 -15 -67 -16 -87 -1 -7 -4 -13 -8 -13 -4 0 -6 -10 -5 -22
1 -13 0 -27 -4 -33 -7 -13 -12 -35 -14 -62 0 -13 -4 -23 -7 -23 -3 0 -6 -8 -7
-17 -1 -10 -4 -31 -8 -48 -4 -16 -8 -39 -10 -50 -5 -23 -16 -75 -19 -90 -2 -5
-6 -21 -9 -35 -4 -14 -9 -36 -11 -50 -2 -14 -9 -44 -15 -68 -7 -23 -9 -47 -6
-52 3 -6 1 -10 -6 -10 -7 0 -10 -3 -7 -6 3 -3 0 -29 -7 -57 -8 -29 -16 -65
-19 -82 -3 -16 -7 -40 -10 -52 -3 -13 -8 -32 -11 -43 -8 -30 -15 -62 -20 -90
-3 -14 -8 -36 -11 -50 -3 -14 -8 -37 -11 -52 -3 -16 -10 -28 -15 -28 -5 0 -7
-4 -4 -8 7 -12 -52 -132 -64 -132 -6 0 -10 -6 -10 -13 0 -21 -60 -72 -115 -98
-90 -42 -202 -26 -277 41 -87 76 -104 219 -53 440 25 103 28 124 29 148 1 12
3 22 6 22 3 0 7 10 8 23 2 25 10 62 12 62 2 0 9 36 15 79 3 21 8 42 11 47 3 5
7 22 9 37 3 15 7 38 10 52 3 14 7 30 8 35 2 6 7 16 11 24 7 10 6 12 -4 6 -9
-5 -11 -4 -6 3 7 12 12 29 22 82 3 14 8 34 11 45 4 11 7 27 9 35 6 47 17 96
22 105 3 5 7 21 9 35 4 29 11 65 13 65 1 0 4 11 6 24 9 51 43 177 55 206 7 17
13 35 14 41 4 19 53 98 74 121 89 95 218 124 326 73z"/>
<path d="M5000 3869 c0 -5 -7 -6 -15 -3 -33 13 -210 -61 -270 -114 -30 -26
-108 -122 -99 -122 4 0 -1 -7 -12 -15 -10 -8 -15 -15 -10 -15 5 0 1 -9 -9 -20
-10 -11 -15 -20 -11 -20 3 0 -1 -14 -10 -31 -20 -39 -54 -151 -56 -186 -1 -7
-6 -13 -11 -13 -6 0 -8 -3 -5 -6 3 -3 2 -21 -4 -41 -5 -19 -11 -45 -14 -57
-13 -70 -27 -133 -32 -146 -3 -8 -5 -25 -5 -37 0 -13 -3 -23 -7 -23 -4 0 -7
-6 -7 -12 -1 -20 -14 -102 -18 -108 -2 -3 -6 -24 -9 -46 -6 -38 -9 -52 -21
-106 -3 -13 -7 -36 -9 -53 -2 -16 -7 -37 -10 -45 -3 -8 -8 -26 -10 -40 -5 -23
-13 -62 -21 -100 -2 -8 -4 -15 -5 -15 -1 0 -3 -9 -5 -20 -5 -26 -17 -86 -22
-105 -2 -8 -5 -27 -7 -42 -3 -15 -7 -31 -9 -36 -8 -12 -21 -121 -21 -179 0
-29 -4 -53 -8 -53 -4 0 -5 -6 -3 -12 3 -7 7 -38 9 -68 7 -81 11 -103 25 -128
6 -12 9 -22 6 -22 -11 0 34 -76 63 -105 89 -91 177 -125 323 -128 161 -3 286
35 379 115 58 49 132 167 165 263 9 28 20 57 23 65 3 8 6 20 7 25 2 6 10 34
18 63 9 28 13 52 10 52 -3 0 0 7 7 15 7 8 10 15 7 15 -3 0 1 24 9 53 8 28 16
63 19 77 3 14 7 34 9 45 14 61 68 324 71 345 2 14 4 25 5 25 1 0 4 11 6 25 5
30 12 64 14 68 2 1 3 10 4 20 1 9 8 44 16 77 7 33 13 66 13 73 0 6 3 12 6 12
3 0 7 16 9 36 1 20 5 41 9 48 4 6 8 20 9 31 0 11 3 32 7 45 28 114 27 337 -2
411 -5 15 -7 30 -4 33 4 3 1 6 -5 6 -7 0 -12 7 -12 17 0 19 -41 77 -79 111
-43 39 -107 73 -168 89 -63 17 -223 25 -223 12z m173 -214 c54 -25 87 -65 102
-120 4 -16 10 -37 12 -45 14 -45 7 -227 -11 -310 -3 -14 -9 -41 -13 -60 -9
-46 -10 -50 -13 -52 -1 -2 -3 -10 -5 -18 -2 -8 -6 -26 -9 -40 -3 -14 -7 -35
-10 -48 -3 -13 -7 -31 -10 -40 -3 -9 -8 -30 -11 -47 -9 -50 -15 -79 -21 -105
-3 -14 -7 -34 -9 -45 -2 -11 -4 -20 -5 -20 -2 0 -4 -11 -14 -65 -4 -19 -9 -44
-11 -55 -2 -11 -7 -31 -10 -45 -3 -14 -8 -35 -11 -47 -2 -13 -6 -34 -9 -48 -3
-14 -7 -35 -9 -47 -2 -13 -8 -34 -14 -48 -5 -14 -8 -35 -7 -47 1 -13 -1 -23
-5 -23 -4 0 -7 -6 -7 -12 -3 -75 -72 -287 -105 -322 -10 -11 -18 -25 -18 -32
0 -18 -84 -91 -127 -110 -56 -24 -167 -22 -218 4 -22 11 -49 28 -61 39 -65 57
-92 185 -70 333 7 51 14 84 16 88 2 1 3 5 4 10 4 16 18 88 22 112 3 14 9 41
14 60 5 19 11 46 14 60 3 14 8 36 11 50 3 14 8 39 11 55 3 17 10 48 15 70 6
22 11 49 12 60 2 11 5 25 9 30 3 6 4 18 3 28 -2 9 1 17 6 17 6 0 7 5 4 10 -3
6 -3 16 1 22 5 7 9 19 10 28 3 31 14 93 18 99 3 3 7 26 11 51 4 25 9 48 12 52
5 9 14 52 16 81 1 9 4 17 8 17 3 0 5 14 4 30 -1 17 2 33 7 36 4 3 8 16 8 29 0
13 5 27 10 30 8 5 7 11 -1 21 -9 11 -9 14 1 14 8 0 11 3 8 6 -3 3 3 29 14 57
11 29 22 60 25 70 3 9 10 17 16 17 6 0 8 3 4 6 -8 9 50 93 85 124 80 69 201
83 301 35z"/>
<path d="M2110 3843 c-68 -9 -81 -21 -86 -78 0 -11 -4 -27 -7 -35 -3 -8 -8
-28 -11 -45 -3 -16 -7 -41 -10 -55 -13 -55 -22 -98 -36 -165 -15 -75 -26 -122
-36 -165 -3 -14 -7 -36 -9 -50 -2 -14 -4 -25 -5 -25 -2 0 -5 -12 -15 -65 -4
-19 -8 -41 -8 -47 0 -7 -3 -13 -7 -13 -4 0 -6 -10 -5 -22 1 -13 -4 -41 -10
-63 -7 -22 -13 -43 -14 -47 0 -5 -1 -9 -2 -10 0 -2 -2 -12 -3 -23 -7 -53 -40
-191 -49 -202 -6 -9 -6 -13 2 -13 8 0 9 -6 3 -17 -10 -19 -21 -70 -36 -158 -1
-5 -4 -14 -7 -20 -4 -5 -5 -18 -4 -27 2 -10 0 -18 -3 -18 -4 0 -8 -10 -9 -23
-2 -24 -10 -62 -13 -62 -1 0 -3 -11 -5 -25 -1 -14 -5 -36 -9 -50 -3 -14 -10
-47 -16 -73 -5 -27 -12 -52 -14 -55 -2 -4 -7 -26 -10 -48 -8 -54 -14 -82 -21
-105 -4 -10 -8 -31 -10 -47 -2 -15 -4 -27 -5 -27 -3 0 -10 -40 -13 -67 -1 -16
-4 -28 -7 -28 -5 0 -11 -38 -14 -87 0 -13 -4 -23 -9 -23 -4 0 -6 -3 -5 -7 2
-10 -16 -109 -22 -115 -1 -2 -3 -18 -5 -36 -2 -19 -7 -41 -11 -50 -4 -10 -8
-26 -10 -37 -4 -33 -14 -79 -20 -95 -7 -19 -16 -61 -17 -77 0 -7 -4 -13 -8
-13 -5 0 -6 -6 -3 -13 2 -7 -2 -32 -11 -56 -8 -24 -12 -47 -9 -52 3 -5 1 -9
-5 -9 -5 0 -12 -14 -16 -30 -15 -68 -69 -98 -178 -98 -43 0 -84 -5 -91 -11 -8
-7 -17 -28 -21 -49 -4 -20 -9 -48 -12 -62 -5 -26 -7 -47 -4 -67 2 -23 171 -35
259 -18 40 7 127 51 152 75 32 33 68 87 81 123 7 20 17 37 23 37 5 0 7 3 3 6
-3 3 -1 18 5 33 5 14 11 33 13 41 2 8 11 44 20 80 9 36 18 76 21 90 2 14 7 36
11 50 4 14 8 32 9 40 5 40 15 93 18 99 3 3 7 26 11 51 4 25 9 48 12 52 2 5 6
18 9 31 2 12 6 33 9 47 4 14 8 34 10 45 2 11 6 31 10 45 4 14 8 39 9 56 2 17
6 35 9 40 3 5 8 27 11 48 4 22 11 45 17 53 9 10 8 13 -2 13 -9 0 -10 3 -4 8 6
4 11 16 12 27 1 11 11 63 23 115 12 52 24 106 26 120 2 14 9 45 14 70 6 25 13
55 15 68 3 12 7 32 10 45 3 12 10 47 16 77 5 30 13 66 16 80 3 14 6 31 6 38 0
6 3 12 6 12 4 0 6 12 5 28 -1 15 2 32 6 37 8 11 18 54 25 105 2 19 6 44 9 55
19 74 24 100 20 107 -3 4 -1 8 3 8 5 0 9 8 9 18 1 9 4 31 8 47 4 17 9 39 11
50 3 11 7 31 10 45 10 41 17 74 19 85 1 6 4 15 7 20 3 6 5 17 4 25 -1 8 3 26
7 39 5 13 11 40 14 60 3 20 8 43 11 51 3 8 7 24 9 35 2 11 8 40 14 65 18 70
21 83 27 115 3 17 9 38 15 49 8 14 7 17 -4 10 -10 -6 -11 -5 -2 7 21 26 23 58
5 80 -16 20 -70 29 -131 22z"/>
<path d="M1397 3829 c-17 -10 -34 -43 -42 -79 -2 -8 -13 -60 -25 -115 -12 -55
-23 -111 -25 -125 -2 -14 -4 -25 -5 -25 -1 0 -3 -7 -5 -15 -6 -32 -16 -86 -22
-120 -3 -19 -9 -40 -14 -46 -5 -6 -7 -13 -4 -16 3 -2 0 -20 -5 -39 -6 -19 -12
-47 -15 -64 -2 -16 -9 -52 -15 -80 -7 -27 -14 -59 -16 -70 -3 -20 -8 -46 -19
-95 -4 -14 -8 -36 -11 -50 -3 -14 -9 -40 -14 -59 -5 -19 -7 -37 -5 -39 2 -3 0
-12 -5 -21 -4 -9 -11 -36 -15 -60 -3 -24 -10 -53 -14 -65 -5 -11 -7 -29 -6
-38 2 -10 -1 -21 -6 -24 -6 -3 -7 -14 -4 -25 4 -10 2 -19 -4 -19 -5 0 -9 -8
-9 -17 0 -10 -2 -31 -6 -48 -4 -16 -9 -39 -11 -50 -3 -12 -14 -63 -25 -115
-12 -52 -22 -105 -23 -117 0 -13 -4 -23 -8 -23 -3 0 -4 -11 -1 -25 2 -14 0
-25 -5 -25 -5 0 -9 -10 -10 -22 -1 -22 -6 -51 -20 -113 -10 -42 -10 -45 -13
-47 -1 -2 -3 -12 -4 -23 -2 -11 -8 -46 -15 -77 -7 -31 -13 -66 -14 -77 -1 -12
-4 -21 -8 -21 -4 0 -6 -16 -5 -35 1 -19 -3 -35 -8 -35 -5 0 -1 -9 9 -20 16
-17 29 -20 97 -18 98 2 106 9 123 113 2 11 4 20 5 20 2 0 4 9 6 20 3 21 8 47
21 100 4 17 6 36 4 43 -1 6 2 12 7 12 4 0 7 12 7 28 -1 15 1 32 4 37 7 12 11
30 16 72 2 18 8 41 14 51 6 11 8 22 4 25 -3 3 -2 14 2 24 4 10 9 25 11 33 4
21 14 68 25 120 6 25 12 54 14 65 7 34 16 79 21 105 3 14 7 32 9 40 2 8 4 15
5 15 1 0 4 11 6 25 8 55 12 77 23 118 7 23 9 47 6 52 -3 6 -2 10 3 10 5 0 9 6
9 13 1 18 11 82 14 85 1 1 2 5 3 10 15 65 20 89 22 97 1 6 3 12 4 15 1 5 5 23
14 70 2 14 5 25 6 25 2 0 9 35 14 72 2 18 7 36 10 41 3 5 8 31 12 58 3 27 8
52 11 57 2 4 6 20 9 35 2 15 7 41 11 57 10 42 10 45 12 48 2 1 4 14 7 30 2 15
6 39 8 55 3 15 5 27 6 27 2 0 9 29 15 60 2 11 6 31 9 45 14 61 17 77 21 110 2
19 1 41 -4 48 -11 18 -149 27 -174 11z"/>
</g>
</svg>
