<?xml version="1.0" standalone="no"?>
<!DOCTYPE svg PUBLIC "-//W3C//DTD SVG 20010904//EN"
 "http://www.w3.org/TR/2001/REC-SVG-20010904/DTD/svg10.dtd">
<svg version="1.0" xmlns="http://www.w3.org/2000/svg"
 width="700.000000pt" height="700.000000pt" viewBox="0 0 700.000000 700.000000"
 preserveAspectRatio="xMidYMid meet">
<metadata>
Created by potrace 1.14, written by Peter Selinger 2001-2017
</metadata>
<g transform="translate(0.000000,700.000000) scale(0.100000,-0.100000)"
fill="#000000" stroke="none">
<path d="M2028 5929 c-65 -10 -61 -1 -114 -259 -52 -258 -50 -238 -27 -262 18
-18 34 -20 121 -22 62 0 105 3 112 10 6 6 18 39 26 74 18 78 46 208 50 235 1
11 10 55 19 99 22 103 14 125 -47 127 -24 1 -57 2 -73 3 -17 1 -47 -1 -67 -5z"/>
<path d="M2895 5932 c-22 -2 -47 -10 -56 -18 -17 -15 -37 -80 -45 -144 -3 -19
-9 -48 -14 -65 -20 -63 -43 -161 -46 -195 -1 -19 -5 -48 -8 -65 -10 -47 1 -54
99 -58 142 -6 156 1 175 88 5 22 16 72 25 110 8 39 18 85 21 103 3 19 11 53
18 75 18 61 20 141 4 154 -14 12 -110 20 -173 15z"/>
<path d="M5344 5922 c-24 -15 -44 -69 -60 -157 -3 -16 -14 -70 -26 -120 -33
-148 -58 -268 -64 -305 -3 -19 -11 -55 -18 -80 -8 -25 -14 -54 -14 -65 0 -11
-15 -90 -35 -175 -19 -85 -40 -180 -46 -210 -13 -65 -11 -56 -50 -235 -16 -77
-37 -174 -45 -215 -31 -146 -48 -225 -57 -255 -5 -16 -11 -55 -15 -85 -3 -30
-10 -59 -14 -65 -5 -5 -11 -30 -15 -55 -4 -25 -12 -73 -19 -107 -8 -34 -11
-65 -8 -67 3 -3 0 -11 -6 -18 -6 -7 -13 -33 -17 -58 -4 -25 -13 -70 -20 -100
-8 -30 -17 -68 -19 -85 -3 -16 -10 -50 -16 -75 -32 -142 -62 -288 -62 -312 -1
-15 -5 -28 -9 -28 -4 0 -7 -8 -7 -17 0 -10 -9 -56 -21 -103 -12 -47 -23 -94
-25 -105 -4 -16 -28 -158 -31 -175 0 -3 -3 -9 -7 -15 -3 -5 -9 -35 -13 -65 -4
-30 -11 -64 -15 -76 -5 -11 -11 -36 -14 -55 -3 -19 -8 -43 -10 -54 -3 -11 -11
-51 -20 -90 -8 -38 -21 -90 -29 -116 -29 -95 -8 -119 105 -119 135 0 165 27
183 165 5 33 9 62 10 65 10 38 20 87 31 144 2 16 7 32 9 36 4 6 7 21 21 105 4
27 27 129 65 300 7 33 13 71 14 85 0 14 3 27 6 30 4 3 14 39 22 80 8 41 29
140 47 220 39 177 33 150 63 300 14 69 36 166 47 215 12 50 24 104 26 120 1
17 8 46 13 65 6 19 11 49 11 65 0 17 4 35 9 41 5 5 14 38 20 74 7 36 13 70 15
75 5 21 16 71 20 95 2 14 24 117 49 230 25 113 48 223 53 245 10 53 10 53 27
131 9 38 18 83 21 99 3 17 20 93 36 170 17 77 33 151 36 165 3 14 7 32 9 40 2
8 7 29 10 47 3 18 12 63 21 100 45 202 70 348 60 355 -6 4 -58 8 -116 8 -58 0
-110 -4 -116 -8z"/>
<path d="M242 5769 c-10 -4 -23 -13 -29 -20 -17 -21 -40 -119 -39 -169 1 -42
2 -44 36 -51 19 -4 136 -8 259 -9 135 0 231 -5 243 -11 22 -12 21 -39 -6 -164
-48 -214 -80 -363 -111 -509 -3 -11 -16 -72 -29 -135 -22 -101 -47 -224 -62
-300 -3 -12 -11 -51 -19 -85 -8 -33 -17 -77 -20 -96 -3 -19 -10 -51 -15 -70
-5 -19 -16 -69 -25 -110 -9 -41 -18 -82 -19 -90 -2 -8 -7 -35 -10 -60 -4 -25
-14 -67 -21 -95 -8 -27 -16 -61 -18 -75 -3 -14 -11 -45 -18 -70 -7 -25 -11
-53 -10 -63 1 -10 -4 -39 -12 -65 -9 -26 -19 -65 -23 -87 -4 -22 -8 -44 -10
-50 -1 -5 -9 -48 -18 -95 -18 -93 -23 -119 -56 -260 -13 -52 -28 -124 -36
-160 -25 -127 -52 -256 -68 -323 -9 -37 -18 -86 -21 -109 -3 -23 -9 -46 -13
-52 -4 -6 -9 -27 -11 -46 -2 -19 -6 -39 -9 -45 -3 -5 -7 -16 -9 -25 -1 -8 -7
-44 -14 -78 -19 -113 -6 -126 129 -126 124 1 130 9 177 249 15 77 29 149 31
160 3 11 11 52 19 90 8 39 42 198 75 355 85 398 108 510 111 545 2 17 6 35 10
40 6 9 18 60 34 145 15 80 28 141 40 190 7 30 19 82 26 115 7 33 14 65 15 70
8 28 15 64 20 95 3 19 7 43 10 52 3 10 8 30 10 45 3 16 14 69 25 118 28 125
28 124 38 180 5 28 19 91 30 140 11 50 22 101 24 115 3 14 19 88 36 165 16 77
33 158 37 180 9 56 9 55 43 203 50 215 29 202 307 207 232 5 280 9 298 28 26
27 46 69 52 104 3 21 6 40 7 43 4 18 -15 70 -25 70 -204 5 -1354 3 -1366 -1z"/>
<path d="M3849 4906 c-3 -3 -23 -8 -45 -11 -76 -12 -203 -65 -277 -117 -52
-36 -147 -130 -147 -145 0 -7 -3 -13 -8 -13 -8 0 -15 -12 -56 -95 -16 -33 -38
-72 -48 -87 -11 -16 -17 -28 -14 -28 3 0 -1 -17 -9 -37 -13 -36 -41 -152 -100
-418 -15 -66 -28 -126 -30 -135 -2 -8 -9 -37 -15 -65 -11 -46 -25 -116 -34
-172 -2 -11 -7 -29 -10 -40 -3 -10 -8 -34 -11 -53 -3 -19 -20 -100 -36 -180
-17 -80 -32 -156 -35 -170 -3 -14 -11 -51 -19 -83 -8 -32 -17 -73 -20 -90 -3
-18 -12 -66 -20 -107 -63 -343 -19 -576 134 -711 55 -49 94 -70 187 -100 91
-30 293 -33 394 -6 122 32 226 92 310 176 82 84 131 170 190 336 22 59 73 265
96 383 2 12 6 32 9 45 30 130 58 265 80 377 26 134 59 284 111 515 15 66 29
136 30 155 2 19 6 46 10 60 15 58 25 285 13 316 -4 12 -4 25 1 30 10 10 -18
116 -48 184 -25 57 -78 130 -117 163 -44 36 -141 84 -210 102 -61 17 -246 32
-256 21z m161 -261 c45 -15 122 -70 146 -104 7 -10 23 -54 35 -97 18 -68 20
-96 15 -199 -6 -133 -8 -150 -38 -280 -11 -49 -21 -99 -22 -110 -1 -11 -4 -24
-8 -30 -3 -5 -9 -30 -13 -55 -4 -25 -11 -49 -15 -55 -4 -5 -7 -17 -7 -25 0
-19 -30 -167 -50 -245 -8 -33 -17 -69 -19 -80 -2 -11 -9 -45 -15 -75 -7 -30
-13 -62 -14 -70 -1 -8 -4 -22 -7 -30 -3 -8 -13 -51 -22 -95 -53 -255 -107
-480 -116 -483 -5 -2 -10 -13 -10 -24 0 -24 -69 -158 -81 -158 -5 0 -9 -6 -9
-13 0 -17 -42 -60 -93 -96 -165 -113 -388 -58 -470 117 -26 55 -30 77 -33 165
-3 103 10 207 41 330 9 37 21 91 25 120 5 28 13 70 18 92 11 46 46 207 67 313
8 40 19 82 25 92 13 25 13 33 -2 24 -7 -4 -8 -3 -4 4 7 11 99 407 120 517 8
40 38 151 62 227 83 261 282 392 494 323z"/>
<path d="M6345 4902 c-3 -3 -19 -7 -36 -8 -87 -6 -209 -54 -305 -120 -49 -34
-164 -162 -164 -183 0 -5 -8 -15 -17 -20 -10 -6 -14 -11 -9 -11 4 0 1 -10 -7
-23 -19 -30 -97 -256 -97 -283 0 -11 -4 -24 -9 -29 -6 -6 -12 -24 -16 -42 -3
-18 -19 -92 -36 -165 -17 -73 -31 -142 -31 -152 1 -11 -3 -27 -8 -37 -6 -9
-12 -35 -16 -56 -6 -46 -7 -50 -34 -183 -12 -58 -24 -118 -26 -135 -3 -16 -19
-88 -36 -160 -16 -71 -31 -139 -33 -150 -2 -11 -15 -74 -30 -140 -31 -144 -51
-283 -57 -415 -1 -17 12 -153 17 -178 11 -58 50 -151 80 -192 67 -91 196 -170
309 -188 54 -8 237 -8 301 0 105 14 232 71 310 139 112 98 232 343 279 569 3
14 12 54 21 90 9 36 18 72 20 80 6 26 46 214 51 240 3 14 7 33 10 42 3 10 7
30 10 45 2 16 7 39 10 53 3 14 8 36 10 50 5 24 59 290 70 340 3 14 10 54 17
90 6 36 15 67 19 70 4 3 9 21 11 40 3 19 15 85 27 145 41 194 30 530 -19 589
-6 7 -8 15 -5 18 3 3 -17 34 -43 69 -79 104 -209 177 -345 194 -69 9 -187 13
-193 7z m192 -272 c66 -28 115 -82 139 -151 16 -45 19 -82 18 -224 -1 -170 -1
-171 -56 -410 -53 -229 -72 -314 -133 -610 -15 -71 -36 -166 -47 -210 -11 -44
-21 -91 -23 -105 -15 -112 -83 -338 -123 -413 -15 -27 -35 -64 -44 -82 -21
-41 -96 -106 -157 -136 -68 -34 -204 -33 -281 3 -115 52 -169 152 -174 319 -3
98 10 178 69 449 29 137 73 333 97 440 16 74 32 149 34 165 5 30 15 77 50 225
9 41 19 84 21 95 2 11 8 43 13 70 6 28 14 64 17 80 3 17 10 35 15 42 5 7 7 21
3 33 -3 11 -3 20 2 20 5 0 9 9 10 20 2 29 44 143 60 161 7 8 13 20 13 26 0 19
87 130 125 159 89 68 242 83 352 34z"/>
<path d="M2625 4854 c-39 -13 -53 -27 -56 -54 -3 -24 -4 -31 -27 -130 -29
-127 -109 -506 -117 -550 -3 -19 -10 -48 -15 -65 -5 -16 -12 -50 -15 -75 -4
-25 -10 -49 -14 -55 -4 -5 -8 -26 -9 -45 -2 -19 -9 -55 -17 -80 -7 -25 -17
-65 -21 -90 -3 -25 -8 -54 -10 -65 -5 -31 -41 -168 -49 -187 -4 -11 -3 -18 4
-18 8 0 9 -6 2 -17 -5 -10 -16 -54 -26 -98 -9 -44 -23 -109 -32 -144 -8 -36
-16 -72 -18 -80 -2 -9 -10 -50 -18 -91 -18 -85 -25 -118 -32 -157 -3 -16 -10
-41 -15 -58 -5 -16 -17 -66 -25 -110 -8 -44 -22 -111 -30 -150 -8 -38 -18 -88
-21 -110 -3 -22 -10 -47 -15 -56 -4 -9 -10 -42 -13 -74 -2 -32 -9 -62 -15 -68
-6 -6 -11 -25 -11 -42 0 -16 -5 -46 -10 -65 -6 -19 -13 -55 -16 -80 -4 -25
-10 -56 -15 -69 -5 -13 -12 -39 -15 -59 -7 -41 -8 -46 -29 -137 -10 -38 -20
-77 -23 -85 -7 -19 -7 -23 -23 -100 -7 -36 -18 -72 -25 -80 -6 -8 -14 -27 -17
-41 -17 -72 -83 -104 -228 -113 -48 -3 -94 -8 -102 -11 -16 -7 -32 -54 -46
-136 -16 -91 -9 -105 53 -114 62 -10 192 -10 251 -1 82 13 192 73 237 130 47
60 97 154 115 216 37 132 89 357 99 426 3 27 8 52 10 55 6 10 81 352 90 409 3
19 9 51 14 70 5 19 11 46 14 60 2 14 9 37 15 52 5 14 10 35 10 45 -1 10 13 83
30 163 17 80 33 154 36 165 2 11 24 117 49 235 25 118 50 240 57 270 6 30 17
78 25 105 8 28 17 70 20 95 3 25 12 70 19 100 8 30 17 70 20 88 9 53 32 160
59 276 15 59 28 121 31 137 17 98 118 516 127 526 7 9 7 13 0 13 -7 0 -7 9 0
28 14 37 3 78 -25 94 -30 17 -146 18 -192 2z"/>
<path d="M1760 4834 c-23 -20 -33 -43 -54 -132 -25 -104 -41 -180 -52 -252 -3
-19 -8 -38 -10 -41 -2 -3 -6 -21 -9 -40 -3 -19 -8 -47 -12 -64 -4 -16 -6 -33
-5 -37 1 -4 -3 -20 -9 -35 -9 -26 -30 -118 -49 -223 -8 -46 -15 -79 -24 -115
-2 -11 -13 -63 -24 -115 -11 -52 -37 -171 -57 -265 -21 -93 -41 -195 -46 -225
-5 -30 -13 -64 -19 -75 -5 -11 -11 -38 -14 -60 -4 -36 -40 -210 -61 -295 -2
-8 -7 -36 -11 -63 -3 -26 -10 -50 -14 -52 -5 -3 -6 -14 -3 -25 3 -11 1 -26 -4
-33 -6 -6 -13 -30 -17 -52 -10 -65 -16 -94 -42 -210 -14 -60 -27 -126 -30
-145 -3 -19 -9 -48 -14 -65 -4 -16 -10 -49 -13 -73 -8 -66 8 -76 130 -75 83 1
110 11 126 46 9 18 19 48 22 67 3 19 8 43 11 52 3 9 7 27 9 40 5 24 22 106 31
148 3 14 9 45 14 70 5 25 16 79 25 120 9 41 21 93 25 115 5 22 21 94 35 160
33 152 32 145 51 240 8 44 19 94 24 110 9 29 38 176 45 225 4 23 81 380 125
572 11 48 20 95 20 104 0 10 4 31 9 48 14 44 50 205 55 246 3 19 19 94 35 165
27 119 36 182 32 227 -1 20 -41 30 -134 33 -59 2 -72 0 -97 -21z"/>
</g>
</svg>
