<svg width="245" height="43" fill="none" xmlns="http://www.w3.org/2000/svg"><path d="M177.3 3.7h-54.8v34.8h54.8V3.7Z" fill="#fff"/><path d="M176.4 32.8h-53v4.7h53v-4.7Z" fill="#FCB316"/><path d="M176.4 4.6h-53v4.7h53V4.6ZM144.6 14.6l-5.5 13h-3.6l-2.7-10.4c-.2-.6-.3-.9-.8-1.1-.8-.4-2.2-.9-3.3-1.1l.1-.4h5.7c.7 0 1.4.5 1.6 1.3l1.4 7.6 3.5-8.9h3.6Zm13.9 8.8c0-3.4-4.8-3.6-4.7-5.2 0-.5.5-1 1.4-1.1.5-.1 1.8-.1 3.3.6l.6-2.8c-.8-.3-1.9-.6-3.2-.6-3.3 0-5.7 1.8-5.7 4.3 0 1.9 1.7 2.9 3 3.6 1.3.6 1.8 1.1 1.8 1.6 0 .9-1 1.3-2 1.3-1.7 0-2.7-.5-3.5-.8l-.6 2.9c.8.4 2.2.7 3.8.7 3.5-.1 5.8-1.8 5.8-4.5Zm8.9 4.2h3.1l-2.7-13h-2.9c-.7 0-1.2.4-1.4 1l-5.1 12.1h3.5l.7-1.9h4.3l.5 1.8Zm-3.8-4.6 1.8-4.9 1 4.9h-2.8Zm-14.2-8.4-2.8 13h-3.4l2.8-13h3.4Z" fill="#10357F"/><path d="M243.9 4.3h-52.2v33.2h52.2V4.3Z" fill="#fff"/><path d="M243.7 22.8s-14.3 10.1-40.4 14.6h40.4V22.8Z" fill="#EE7623"/><path d="M243.9 4.2h-52.4v33.6h52.6V4.2h-.2Zm-.2.3v32.8h-51.8V4.5h51.8Z" fill="#231F20"/><path d="M196.1 14.4H194V22h2.2c1.2 0 2-.3 2.7-.9.9-.7 1.4-1.8 1.4-2.9-.1-2.2-1.8-3.8-4.2-3.8Zm1.8 5.7c-.5.4-1.1.6-2 .6h-.4v-5h.4c1 0 1.5.2 2 .6.5.5.8 1.2.8 1.9 0 .8-.3 1.5-.8 1.9ZM202.4 14.4h-1.5V22h1.5v-7.6ZM206 17.4c-.9-.3-1.2-.5-1.2-1s.5-.8 1.1-.8c.4 0 .8.2 1.2.6l.8-1c-.6-.6-1.4-.8-2.2-.8-1.3 0-2.4.9-2.4 2.2 0 1 .5 1.6 1.9 2.1.6.2.9.3 1 .4.3.2.4.5.4.8 0 .6-.5 1.1-1.2 1.1s-1.3-.4-1.6-1l-1 .9c.7 1 1.5 1.4 2.6 1.4 1.5 0 2.6-1 2.6-2.5.2-1.3-.3-1.8-2-2.4ZM208.7 18.2c0 2.2 1.8 4 4 4 .6 0 1.2-.1 1.9-.4V20c-.6.6-1.1.8-1.8.8-1.5 0-2.6-1.1-2.6-2.6s1.1-2.6 2.5-2.6c.7 0 1.2.3 1.9.9v-1.7c-.7-.3-1.2-.5-1.8-.5-2.3 0-4.1 1.7-4.1 3.9ZM226.3 19.5l-2-5.1h-1.6l3.2 7.8h.8l3.3-7.8h-1.6l-2.1 5.1ZM230.6 22h4.2v-1.2h-2.7v-2.1h2.6v-1.3h-2.6v-1.7h2.7v-1.3h-4.2V22ZM240.7 16.7c0-1.4-1-2.2-2.7-2.2h-2.2V22h1.5v-3h.2l2.1 3.1h1.8l-2.4-3.2c1.1-.3 1.7-1.1 1.7-2.2Zm-3 1.2h-.4v-2.3h.5c.9 0 1.4.4 1.4 1.1 0 .8-.5 1.2-1.5 1.2Z" fill="#231F20"/><path d="M223.1 18.2c0 2.2-1.8 4-4 4s-4-1.8-4-4 1.8-4 4-4 4 1.8 4 4Z" fill="#EE7623"/><path d="M241.5 14.6c0-.1-.1-.2-.3-.2h-.2v.6h.2v-.3l.2.3h.2l-.2-.3c.1 0 .1 0 .1-.1Zm-.3.1v-.2c.1 0 .1 0 .1.1 0 0 0 .1-.1.1Z" fill="#231F20"/><path d="M241.3 14.1c-.3 0-.6.3-.6.6s.3.6.6.6.6-.3.6-.6-.3-.6-.6-.6Zm0 1.1c-.3 0-.5-.2-.5-.5s.2-.5.5-.5.5.2.5.5c-.1.3-.3.5-.5.5Z" fill="#231F20"/><path d="M41.6 42.3v-6.6h-5L34 32.8l-2.6 2.9H14.9V22.4H9.59998L16.2 7.4h6.4l2.3 5.1V7.4h7.9l1.4 3.9 1.4-3.9h6.1V.700001H.0999756V42.3H41.6ZM37.5 34h4.2l-5.5-5.9 5.5-5.8h-4.1L34.2 26l-3.4-3.7h-4.2l5.5 5.8-5.5 5.9h4.1l3.4-3.8 3.4 3.8Zm.9-5.8 3.2 3.4v-6.8l-3.2 3.4Zm-18.6 3.1v-1.8h6.6v-2.6h-6.6v-1.8h6.7v-2.7h-9.9V34h9.9v-2.7h-6.7Zm18.7-10.6h3.1V9.1h-4.9l-2.6 7.2-2.6-7.2h-5v11.6h3.1v-8.1l3 8.1h2.8l3-8.2v8.2h.1Zm-15.5 0h3.6L21.5 9.1h-4.1l-5.1 11.6h3.5l1-2.3H22l1 2.3Zm-2.1-4.9h-3.2l1.6-3.8 1.6 3.8Z" fill="#0071CE"/><path d="M88.7 9.5H74.4V33h14.3V9.5Z" fill="#FF5F00"/><path d="M75.9001 21.3c0-4.6 2.1-9 5.7-11.7-6.5-5.1-15.9-3.9-21 2.5s-3.9 15.9 2.5 21c5.4 4.2 13 4.2 18.5 0-3.6-3-5.7-7.3-5.7-11.8Z" fill="#EB001B"/><path d="M104.3 30.5V30h.2v-.1h-.5v.1h.2l.1.5Zm1 0v-.6h-.2l-.2.4-.2-.4h-.1v.6h.1V30l.2.4h.1l.2-.4.1.5ZM105.8 21.3c0 8.3-6.6 14.9-14.9 14.9-3.4 0-6.6-1.2-9.2-3.2 6.5-5.1 7.6-14.4 2.5-21-.8-1-1.5-1.7-2.5-2.5 6.5-5.1 15.9-3.9 21 2.5 1.9 2.6 3.1 5.9 3.1 9.3Z" fill="#F79E1B"/></svg>